# xmcd
#
# Track frame offsets:
# 150
# 18731
# 31763
# 46197
#
# Disc length: 873 seconds
#
#
# Revision: 0
# Processed by: cddbd v1.4PL0 Copyright (c) Steve Scherf et al.
# Submitted via: FreeRIP 2.10 
#
DISCID=26036704
DTITLE=Anna Ternheim - Anna Ternheim
DYEAR=2003
DGENRE=
TTITLE0=I say no
TTITLE1=To be gone
TTITLE2=Wedding song
TTITLE3=No way out
EXTD=Demo
EXTT0=
EXTT1=
EXTT2=
EXTT3=
PLAYORDER=
